<svg xmlns="http://www.w3.org/2000/svg" viewBox="0 0 729.06 291.54"><defs><style>.cls-1{fill:#fff;fill-rule:evenodd;}</style></defs><title>trueface-white</title><g id="Layer_2" data-name="Layer 2"><g id="Layer_1-2" data-name="Layer 1"><path class="cls-1" d="M427,106.17c0,2.45.27,5.44,4.17,6,4.5.59,5.39-3.34,5.63-6.6a16.42,16.42,0,0,1,.76-3.62c2-5.9,7.3-10.26,12.69-12.93,9.72-4.8,28.05-4.19,35.82,3.63a21.13,21.13,0,0,1,5.31,7.5c2.66,5.93,2,15.56,2,22.58,0,1.65-3.48,1-5.06,1-20.57,0-41.6-1.86-56.71,13.06-10.38,10.27-9.7,29.54,1.69,39.6,12,10.65,32.58,10.05,45.94,2.64a32.54,32.54,0,0,0,3.79-2.28,36.21,36.21,0,0,0,8.05-7.45c.78-.89.64-1.1,2-1.41,1.54,3.19-.47,15.84,7.08,15.84a5.08,5.08,0,0,0,5.06-4.72c0-1.67-1.54-3.75-2-6.82l-.06-61.28a55.39,55.39,0,0,0-.88-7.88c-1.18-6.4-4.68-12.85-9.53-16.76-14.26-11.51-38.59-10.59-52.77-.76-6.5,4.51-13,12.33-13,20.7M283.79,208.63c0,5.33,2.47,13.64,3.92,18l4.84,11.67A96,96,0,0,0,301.07,252l5,6.11c8,9.93,24,20.89,35.53,25.48A103.11,103.11,0,0,0,358.42,289a112.14,112.14,0,0,0,20.37,2.5h6.6a87.74,87.74,0,0,0,18.32-2.42,126.44,126.44,0,0,0,16.63-5.28c4.71-1.88,13.75-6.58,17.72-9.58,7.33-5.54,7.85-5.47,15-12.63,4.59-4.6,6.21-6.9,10.12-12.12a96.64,96.64,0,0,0,8-13.91c1.28-2.6,2-5,3.17-7.95,1.39-3.57,4.24-13.55,4.24-18,0-5.64-9.06-8-10.46.33-2.68,15.95-8.41,27.06-18,39.3-4.69,6-12.86,13-19.27,17.13a91.13,91.13,0,0,1-85.74,7.27c-10.27-4.5-14.17-7.58-22.25-13.81a54.08,54.08,0,0,1-7.9-7.61l-9.1-11.8a83.46,83.46,0,0,1-9.67-21.67,68.71,68.71,0,0,1-1.88-8.57c-1.14-7.19-7.53-6.74-9.75-3.14C284.45,207.29,283.79,208.6,283.79,208.63Zm-23.45-53.06c2.62,6.55,6.93,13.78,12.52,18.15,3.95,3.08,3.54,3,8.58,5.91,14,8,36.05,5.74,48.33-3.88,2.23-1.75,9.29-8.18,9.29-10.94,0-2.45-1.32-4-3.7-4-3,0-4.72,5.83-12.7,10.56a32.75,32.75,0,0,1-5.16,2.59c-7.43,3-18.58,3.65-26.54.58a35.07,35.07,0,0,1-17.22-13.79c-6.1-8.94-7.48-16.82-7.48-28.59,0-1.54,2.39-1,4.05-1H329c6.91,0,13,1,11.85-8.81-.37-3.17.11-4.14-.87-9.59-1.57-8.79-4.85-15.18-10.11-21.91a35,35,0,0,0-12-9.24c-10.81-5.33-25.79-4.73-36.09,1-6.93,3.85-5.11,3.44-10,7.23-1.92,1.5-6.27,7.47-7.7,9.83C255.07,114.55,253.9,139.47,260.34,155.57ZM329.63,123h-62c-3.29,0,2-14.16,2.31-14.88a38.21,38.21,0,0,1,6.53-11c.82-.94,1.09-1.42,2-2.35a31.21,31.21,0,0,1,35.66-5.48c7.31,3.81,12.58,11.44,14.95,19.43A58.59,58.59,0,0,1,331,120C331.1,121.45,330.91,123,329.63,123Zm318.69,32.84c11.09,27.56,46.26,38.2,69.44,19.94,3.1-2.44,9.24-8.06,9.24-11.66a3.54,3.54,0,0,0-3.41-3.27c-3.06-.14-4.28,4.42-10.89,9.19-12.28,8.87-31.44,9-43.39-.81-3.71-3-2.17-1.92-4.92-4.86-6.33-6.78-10.19-18.53-10.19-28.22,0-6.35-1.5-5.06,9.1-5.06h52.24c5.53,0,14,1.91,13.49-7.41-1.58-28.88-14.64-45.51-43.82-45.51-14,0-26.8,10.64-33.57,22C642.89,115,642,140.09,648.32,155.86ZM717.56,123h-62c-.56,0-1-.2-1-.67,0-11.84,8.5-27.43,19.1-32.81a31.15,31.15,0,0,1,28-.45C713,94.83,718.25,107.66,718.93,120,719,121.44,718.86,123,717.56,123ZM376.48,34V230.2c0,6,7.6,7.37,9.73,2.32.8-1.88.38-20.32.38-23.22V51.9c0-12.29-2.46-32.13,7.74-39.44,6-4.3,9.79-4,16.86-4a14.19,14.19,0,0,1,3.67.37c1.47.37,1.66,1,3.07,1,4.58,0,9-9.77-8.42-9.77h-4.39c-9.45,0-17.36,4.45-21.62,9.72C378.71,15.65,376.48,23.45,376.48,34Zm146.95,94.37c0,11.9.17,15.61,4.76,26.92,4.37,10.78,14.28,20.5,24.56,25.66,17.72,8.91,40.75,5.89,56-6.66,7.41-6.09,10.08-10.07,14.4-17.62,1-1.71,3-6.41,3-8.75a4.39,4.39,0,0,0-4-4c-6.73,0-3.3,11.41-18.58,23.55a44.43,44.43,0,0,1-22.1,9.58c-36.18,5.4-62.51-34.23-43-69.64a34.66,34.66,0,0,1,2.14-3.26c10.92-15.48,30.62-21.27,48.83-15.47a45.36,45.36,0,0,1,27.39,25.52c.67,1.67,1.51,5.79,5,5.79a4.29,4.29,0,0,0,4.38-4.38c0-3.65-4.58-11.25-6.87-14.7A51,51,0,0,0,609,89.73c-7-5.69-19.14-11.87-31.61-11.87-9.79,0-15.81,1-24.15,4.83A51.06,51.06,0,0,0,535.66,96.5l-5,7.41C526.89,110.57,523.43,119.7,523.43,128.41ZM0,80.89A3.75,3.75,0,0,0,1.23,84c1.66,1.54,8.58.89,12.25.89,2.93,0,5.89-.06,8.8,0,2.73,0,2,.3,2,7.11v35.73c0,11.41-.45,24.24.35,35a31.44,31.44,0,0,0,4.29,13.56A40.82,40.82,0,0,0,35.22,183c1.7,1.38,3.94,2.43,6.12,1.41a5.71,5.71,0,0,0,1.57-1.26,3.26,3.26,0,0,0,1-1.35c2.48-5.6-4.42-7.15-6.86-11.89-2.29-4.47-2.68-8.95-2.68-14.5V86.28c0-2.1,4.35-1.35,6.4-1.35l15.86,0c5,0,5.76-3.92,4.1-6.19A3.27,3.27,0,0,0,57.9,77.3l-12.53-.07c-8.59.14-10.78,1.42-10.87-2-.22-7.93-.16-33.77-.12-40.13.06-8.34-6.57-7.1-8.53-5.15-1.59,1.59-1.59,4.08-1.58,7.17l0,38.13c0,3-1.31,2-10.83,2C7.63,77.18,0,75.78,0,80.89Zm148.3,40.78v22.58c0,13.51,7.49,25.61,18,33.23,9.27,6.71,21.66,8.83,32.81,6.47A42.53,42.53,0,0,0,223.65,168c4.34-5.8,8.23-15.06,8.23-22.44V122c0-5.29-8.81-7.61-8.77,2.69,0,4.61.28,20.18-.32,23.61a33.19,33.19,0,0,1-62.14,9.2c-4.84-9.74-3.6-18.95-3.59-31.79,0-2,.24-4.12-.48-5.59C154.46,115.74,148.3,117.66,148.3,121.67ZM80.55,82.24V179a5.94,5.94,0,0,0,1.25,4.15c3.39,3.86,7.92,1.27,8.19-2.47v-28c0-7.71-.4-31,.52-36.89a35.35,35.35,0,0,1,14.17-23.25c12.15-9.17,21.77-5.21,24.48-8.21s.81-7.82-2.77-7.82c-11,0-18.35,2.66-26.36,8-5.89,3.94-8.66,8.25-10,9.17,0-2.69.53-13.27-.66-15.18C87.33,75.31,80.55,75.38,80.55,82.24Zm67.75-.34V98.42c0,5,8.76,6,8.76-.68V82.24C157.06,75.8,148.3,76.05,148.3,81.9Zm74.82,2c0,3.22-.5,14.26.8,16.39,2.44,4,8,1.84,8-1.56V81.23C231.88,77,223.12,74.47,223.12,83.92Zm238,92h-4.72c-24.11,0-33.88-34-2.43-42.88,10.85-3.06,25.21-2.29,39.17-2.29.79,3.36.34,18.68.34,23.26,0,3.71-7.66,12.24-11.86,15.1C476.83,172.37,468.92,175.94,461.07,175.94Z"/></g></g></svg>
